<svg width="275" height="123" viewBox="0 0 275 123" fill="none" xmlns="http://www.w3.org/2000/svg">
<g clip-path="url(#clip0_69_594)">
<path d="M238.572 60.6099C241.211 58.2575 242.942 55.7875 244.792 53.439C247.589 49.8829 250.287 46.2523 253.024 42.6492C253.341 42.2336 253.643 41.7984 253.983 41.4024C254.585 40.7006 255.211 39.8459 256.281 40.4968C257.386 41.1711 257.105 42.1317 256.57 43.0648C255.433 45.0526 254.364 47.0835 253.163 49.036C249.982 54.227 246.92 59.5121 242.641 63.9347C239.785 66.8869 237.582 67.1614 234.032 65.0442C233.133 64.511 232.218 63.9072 231.532 63.1427C230.368 61.8449 229.599 62.1899 228.838 63.472C228.672 63.7504 228.446 63.9974 228.24 64.2522C224.382 68.9963 222.409 69.404 217.124 66.3459C216.007 65.699 215.087 65.7107 213.978 66.2165C210.983 67.5809 207.98 68.9414 204.934 70.1882C202.22 71.3016 199.451 71.529 196.662 70.3097C194.245 69.2511 192.506 67.6358 191.971 64.5581C190.751 66.1891 189.816 67.5025 188.81 68.761C186.492 71.6545 184.171 72.2818 181.211 70.8782C177.828 69.2707 176.168 66.4517 176.944 63.1897C178.604 56.2344 181.441 49.6829 184.127 43.0805C184.369 42.4845 184.614 41.8925 184.979 41.0064C183.798 41.3515 183.501 42.1944 183.057 42.8178C176.358 52.2392 170.491 62.1429 165.57 72.5876C165.293 73.1797 164.968 73.7482 164.651 74.3167C163.863 75.7242 162.754 76.1319 161.169 75.5909C157.976 74.5049 155.611 72.6778 154.981 68.8355C153.376 71.0546 152.101 73.0111 150.627 74.8107C147.493 78.6412 144.855 78.9823 140.703 76.2613C136.234 73.3326 135.355 71.1252 136.591 65.9969C137.958 60.3237 140.132 54.921 142.201 49.483C142.474 48.7694 142.969 48.1147 142.807 47.1737C141.808 47.1502 141.531 47.997 141.115 48.5577C135.787 55.7443 131.555 63.574 127.479 71.4938C121.322 83.4636 119.017 96.4019 117.682 109.583C117.488 111.512 117.008 111.971 115.059 111.634C111.01 110.932 108.653 107.854 109.196 103.847C110.456 94.4886 113.237 85.4906 115.923 76.473C116.687 73.9128 117.519 71.3722 118.403 68.5572C117.444 68.9061 117.258 69.6275 116.909 70.1568C114.354 74.0461 111.818 77.9315 108.475 81.2445C106.601 83.1029 104.549 83.546 102.176 82.4756C99.1529 81.1112 96.3282 79.5469 96.6174 75.3439C95.3497 76.0614 95.0961 77.1396 94.5098 77.9472C93.6263 79.1665 92.7746 80.4094 91.9387 81.664C90.3223 84.0949 88.1473 85.1927 85.184 84.5575C82.1414 83.9027 79.5188 82.7305 78.5403 79.4488C78.4848 79.2646 78.4095 79.0842 78.3263 78.9117C78.3026 78.8647 78.2233 78.8411 77.9975 78.7039C76.8486 80.4016 75.7116 82.1267 74.531 83.8165C71.4489 88.2155 66.3185 88.7762 62.3766 85.0162C61.2277 83.9224 60.2848 83.7969 58.8784 84.3262C53.4509 86.3728 47.9997 88.3527 42.7306 90.7875C41.4193 91.3913 40.7023 92.246 40.3814 93.6692C38.4837 102.036 37.0694 110.454 37.1011 119.067C37.1169 123.031 36.2137 123.615 32.3233 122.463C29.1738 121.53 28.3141 120.361 28.2467 117.111C28.0407 107.497 30.3345 98.3348 33.286 89.2859C33.4841 88.6742 33.8565 88.0979 33.7099 87.2549C32.9136 87.3765 32.5689 88.0391 32.1371 88.5135C29.5343 91.3834 26.9394 94.2612 23.7582 96.5352C17.2452 101.189 6.14454 99.6679 1.99666 93.5751C0.491218 91.3952 0.0673187 88.8938 0.00789355 86.3179C-0.114919 80.7701 0.982467 75.3948 2.62656 70.1372C7.55885 54.3642 14.4878 39.5597 24.6099 26.3274C24.9665 25.8608 25.3825 25.4335 25.743 24.9669C30.802 18.4977 36.1028 18.435 44.248 20.8894C47.144 21.7637 49.1882 23.8613 50.5668 26.5195C53.0112 31.2361 53.8313 36.2898 53.5183 41.5279C53.4391 42.8492 53.4034 44.4763 51.2879 44.2606C49.3229 44.0567 48.4275 42.9158 48.5939 40.9594C48.9307 36.9877 48.174 33.2866 45.7613 30.0167C43.3407 26.7351 39.8465 25.5746 35.9562 25.2845C34.5577 25.1786 33.6307 26.0804 32.7749 27.0096C29.4551 30.6166 27.0701 34.8549 24.7724 39.1088C18.6912 50.3691 13.6202 62.0527 10.1815 74.3912C8.91375 78.9352 7.96295 83.5303 7.95106 88.2743C7.9471 89.7916 8.18876 91.2776 8.69586 92.6969C9.97152 96.2725 12.7051 97.1351 15.8467 94.9787C17.4234 93.8966 18.8576 92.6381 20.2006 91.2854C30.8931 80.5074 39.9733 68.5258 47.5005 55.3915C48.2057 54.1643 48.7603 52.8548 49.5012 51.3532C50.6223 52.7372 50.5866 54.1957 50.8243 55.564C51.4543 59.1945 51.0819 62.6291 49.5249 66.0675C47.3698 70.8312 45.6306 75.7752 44.0737 80.774C43.9112 81.2916 43.4279 81.9424 44.0737 82.3698C44.5728 82.6991 45.0522 82.1698 45.5038 81.9306C50.444 79.2959 55.3763 76.6377 60.6889 74.7989C61.9091 74.3755 62.1944 73.4619 62.5113 72.4622C65.3439 63.472 68.7628 54.7053 72.8909 46.2131C72.9464 46.0955 72.9979 45.974 73.0573 45.8563C74.7054 42.5394 78.0609 42.1905 80.5528 45.0487C81.4481 46.0759 80.9173 46.9659 80.43 47.9186C75.5215 57.5165 71.9559 67.6083 69.1511 77.9825C68.8619 79.0489 68.7351 80.1624 68.5925 81.2602C68.537 81.6836 68.4301 82.26 69.0402 82.4011C69.4561 82.4991 69.7731 82.1345 69.9949 81.8169C70.8625 80.5858 71.7381 79.3547 72.5462 78.0884C78.6116 68.5885 84.566 59.0377 88.4762 48.393C89.3041 46.1347 90.4768 43.9823 91.6217 41.8533C92.7746 39.7165 94.0938 39.6028 96.9779 41.1946C99.0974 42.363 99.3034 43.1158 98.2179 45.2682C93.1509 55.3013 89.427 65.8205 86.6934 76.6926C86.4557 77.6453 85.7862 79.0803 86.8281 79.539C87.7908 79.9664 88.286 78.4608 88.7812 77.6963C95.1635 67.8593 101.534 58.0144 106.149 47.1855C106.815 45.625 107.659 44.1391 108.415 42.6139C108.895 41.6455 109.655 41.3044 110.697 41.6181C111.391 41.8259 112.104 41.9984 112.765 42.2807C116.117 43.7039 116.394 44.3939 115.083 47.7069C111.569 56.5834 108.126 65.4873 105.424 74.6499C105.226 75.3164 104.842 75.979 105.175 76.8298C106.137 76.6926 106.553 75.881 107.06 75.2811C112.753 68.5728 118.018 61.5313 123.026 54.329C124.848 51.706 125.55 48.3303 126.805 45.3153C128.014 42.4179 129.234 39.5244 130.529 36.6662C131.456 34.6275 133.366 34.2589 136.119 35.4587C138.306 36.4153 138.96 37.7287 138.14 39.8263C136.84 43.1511 135.466 46.4444 133.996 50.0672C135.525 49.5653 135.909 48.4518 136.496 47.6089C139.911 42.7002 143.635 38.0542 147.973 33.91C150.861 31.1498 153.365 31.1812 156.367 33.91C157.409 34.8588 157.239 35.7723 156.744 36.8936C152.279 47.0874 148.452 57.5165 145.104 68.122C144.791 69.1178 144.49 70.1254 144.265 71.1448C144.146 71.6859 143.658 72.4386 144.249 72.7758C144.93 73.164 145.429 72.3877 145.849 71.9407C147.2 70.5097 148.504 69.0355 149.803 67.5574C150.496 66.7693 151.094 65.8989 151.815 65.1383C156.197 60.5119 158.828 55.0308 160.658 48.9733C162.373 43.2922 164.746 37.8032 166.83 32.2359C167.357 30.8283 168.043 29.5463 169.825 29.558C171.913 29.5698 173.949 29.8834 175.387 31.585C176.136 32.4672 175.613 33.4591 175.269 34.3726C172.23 42.4532 169.393 50.6004 167.001 58.8927C166.858 59.3827 166.759 59.8807 166.6 60.5197C167.662 60.4648 167.805 59.665 168.13 59.124C173.743 49.7143 179.817 40.634 187.451 32.6711C190.01 30.0011 192.597 30.0285 195.279 32.6279C196.155 33.4748 196.028 34.2942 195.572 35.2822C191.674 43.7235 188.378 52.4 185.363 61.1823C184.939 62.4174 184.547 63.668 184.226 64.9344C184.091 65.4598 183.572 66.2087 184.198 66.5458C184.915 66.9301 185.327 66.0832 185.755 65.6362C186.389 64.9736 186.995 64.2758 187.546 63.5426C189.824 60.5001 192.225 57.5322 194.293 54.3525C196.523 50.9219 197.173 46.8091 198.753 43.0766C200.869 38.0777 202.814 33.0082 205.433 28.2328C206.582 26.1353 207.742 25.9941 210.583 27.4957C212.817 28.6798 213.075 29.5267 211.989 31.7026C207.14 41.3946 203.492 51.5296 200.766 61.9939C200.413 63.3426 199.562 65.1305 200.58 66.0989C201.713 67.181 203.278 65.7931 204.573 65.3383C206.617 64.6169 208.555 63.6014 210.559 62.7545C211.688 62.2762 212.132 61.6881 211.775 60.3472C210.86 56.8853 212.092 53.6115 213.118 50.3887C217.033 38.0855 222.409 26.3744 228.078 14.7888C229.314 12.2638 230.621 9.77028 231.877 7.25319C232.713 5.57514 232.586 5.34382 230.645 5.48104C222.741 6.0417 214.881 7.00227 207.025 7.98636C186.334 10.5779 165.693 13.5224 145.057 16.4943C125.728 19.278 106.407 22.1322 87.0816 24.9551C85.0453 25.2531 82.9971 25.5628 81.1629 24.2337C80.529 23.775 79.7327 23.332 79.9268 22.4067C80.1091 21.5324 80.9965 21.5206 81.6898 21.4147C90.9522 20.0033 100.207 18.5683 109.481 17.2274C127.828 14.5692 146.178 11.9188 164.536 9.35469C187.538 6.13972 210.52 2.7836 233.604 0.168502C235.383 -0.0314533 237.162 -0.12555 238.925 0.274361C242.241 1.02321 243.275 3.0855 241.718 6.08483C236.5 16.1375 231.608 26.3431 227.171 36.7525C224.35 43.3706 221.604 50.024 220.02 57.0734C219.762 58.2144 219.616 59.3906 219.536 60.5589C219.477 61.4646 219.477 62.5389 220.499 62.931C221.45 63.2956 222.1 62.4801 222.65 61.8567C225.756 58.3673 228.636 54.7171 230.597 50.4475C233.763 43.551 236.908 36.6466 240.062 29.7462C240.252 29.3306 240.446 28.915 240.644 28.5034C242.688 24.2729 243.758 23.9946 247.866 26.4607C249.443 27.4095 249.784 28.4994 249.043 30.2206C245.303 38.8736 242.181 47.754 239.285 56.7127C238.933 57.7988 238.477 58.8966 238.58 60.606L238.572 60.6099Z" fill="#656565"/>
<path d="M180.965 94.8103C181.013 94.7319 181.041 94.6456 181.049 94.5515C181.021 94.6378 180.993 94.724 180.965 94.8103ZM180.965 94.8103C181.013 94.7319 181.041 94.6456 181.049 94.5515C181.021 94.6378 180.993 94.724 180.965 94.8103ZM180.965 94.8103C181.013 94.7319 181.041 94.6456 181.049 94.5515C181.021 94.6378 180.993 94.724 180.965 94.8103ZM180.965 94.8103C181.013 94.7319 181.041 94.6456 181.049 94.5515C181.021 94.6378 180.993 94.724 180.965 94.8103ZM180.965 94.8103C181.013 94.7319 181.041 94.6456 181.049 94.5515C181.021 94.6378 180.993 94.724 180.965 94.8103ZM180.965 94.8103C181.013 94.7319 181.041 94.6456 181.049 94.5515C181.021 94.6378 180.993 94.724 180.965 94.8103ZM180.965 94.8103C181.013 94.7319 181.041 94.6456 181.049 94.5515C181.021 94.6378 180.993 94.724 180.965 94.8103ZM180.965 94.8103C181.013 94.7319 181.041 94.6456 181.049 94.5515C181.021 94.6378 180.993 94.724 180.965 94.8103ZM180.965 94.8103C181.013 94.7319 181.041 94.6456 181.049 94.5515C181.021 94.6378 180.993 94.724 180.965 94.8103Z" fill="#656565"/>
<path d="M162.881 79.841C162.31 80.1429 161.74 80.4409 161.141 80.6801C160.488 80.9388 159.814 81.0447 159.145 81.2407C157.849 81.621 156.629 82.2719 155.666 83.2207C154.573 84.291 153.797 85.6868 153.274 87.11C152.584 88.988 150.972 94.9671 150.698 95.6649C152.957 94.9671 155.409 93.4262 157.968 92.8264C156.72 94.6299 155.199 96.0649 152.885 96.4608C151.59 96.6843 150.346 97.8292 149.581 98.8211C148.67 100.001 147.83 101.44 147.351 102.852C147.212 103.267 147.105 103.691 147.058 104.126C146.939 105.204 147.18 106.282 147.054 107.36C146.927 108.439 146.658 109.603 146.511 110.732C146.372 111.803 144.934 111.74 144.269 110.666C143.421 109.297 143.817 107.482 144.031 105.992C144.257 104.412 144.546 102.844 144.906 101.287C145.033 100.738 145.247 100.154 145.184 99.5856C145.16 99.3582 145.089 99.1387 144.954 98.9544C144.748 98.6721 144.423 98.531 144.221 98.2369C143.817 97.6488 143.583 96.5902 144.031 95.9629C144.443 95.3787 145.358 95.3042 146.008 95.2494C146.705 95.1905 146.832 94.7397 147.022 94.2417C148.104 91.3718 149.173 88.4979 150.314 85.6476C150.73 84.6007 150.215 84.5772 149.423 84.5733C148.389 84.5655 147.038 84.7497 147.303 83.0991C147.43 82.3111 147.553 81.2642 148.317 80.8094C149.145 80.3194 150.156 80.8565 151.051 80.6408C151.515 80.5311 151.95 80.3429 152.406 80.2017C154.351 79.5862 156.372 79.9704 158.329 79.5391C159.438 79.296 160.563 79.0608 161.68 78.8412C162.366 78.7079 163.063 78.5942 163.76 78.6491C163.883 78.8609 163.816 79.1392 163.661 79.3313C163.507 79.5234 163.285 79.6411 163.067 79.7587C163.007 79.7901 162.952 79.8214 162.893 79.8528L162.881 79.841Z" fill="#656565"/>
<path d="M192.997 74.1639C192.185 73.9679 191.547 74.1482 191.361 75.0774C190.684 78.512 188.889 81.5309 187.701 84.7733C187.471 85.4006 187.336 86.3612 186.342 86.1534C184.706 85.8123 183.739 86.8003 182.729 87.7256C181.112 89.1998 179.841 90.9249 178.834 92.8656C178.125 94.2379 177.281 95.5199 175.61 96.0845C175.804 91.8306 175.713 91.0543 174.916 89.9094C173.514 87.902 172.127 87.804 170.737 89.8075C169.548 91.5208 168.609 93.4067 167.504 95.1828C166.795 96.3158 166.018 97.4254 164.556 97.7704C164.228 97.0451 164.624 96.5079 164.663 95.9394C164.782 94.2143 164.719 92.5559 163.384 91.1954C161.993 89.7761 161.023 89.7251 159.834 91.3326C158.317 93.3871 157.136 95.6532 155.995 97.9351C155.243 99.4367 154.89 100.966 155.223 102.644C155.445 103.753 155.159 105 156.811 105.4C158.471 105.8 159.799 105.565 160.848 104.204C161.613 103.212 162.12 102.087 162.627 100.95C163.174 99.7229 164.43 99.2995 165.555 99.3191C166.597 99.3387 166.216 100.554 166.359 101.264C166.585 102.389 166.811 103.389 168.229 103.679C169.663 103.973 170.871 103.726 171.787 102.612C172.615 101.601 173.3 100.495 173.724 99.2328C174.14 97.9821 175.443 97.5508 176.41 97.5587C177.468 97.5705 176.659 98.8172 176.85 99.4955C177.115 100.417 177.361 101.342 178.359 101.609C179.437 101.899 180.241 101.287 180.867 100.44C182.039 98.8486 182.535 96.9275 183.474 95.222C184.159 95.8061 183.834 96.5628 183.751 97.2333C183.628 98.1938 183.327 99.1309 183.192 100.091C183.042 101.162 183.161 102.177 184.195 102.852C185.205 103.51 186.199 103.259 187.186 102.805C188.239 102.322 188.992 101.542 189.503 100.511C190.113 99.2916 190.731 98.0762 191.349 96.8569C191.734 96.1041 192.114 95.3474 192.494 94.5907C192.875 93.834 193.877 92.6108 194.15 91.8227C194.047 92.1207 193.54 92.4147 193.31 92.6343C191.955 93.9556 191.001 95.5042 189.947 97.049C189.123 98.2527 188.283 99.4485 187.435 100.636C187.067 101.154 186.611 101.562 185.961 101.087C185.391 100.672 185.957 100.315 186.088 99.9189C186.679 98.135 187.237 96.3394 187.804 94.5515C189.491 89.4115 191.738 84.491 193.679 79.449C194.123 78.3002 194.459 77.0887 194.689 75.8773C194.931 74.6344 193.917 74.3795 192.997 74.16V74.1639ZM159.232 102.577C157.826 102.785 158.337 100.962 158.495 100.225C158.574 99.8562 158.665 99.4877 158.84 99.1544C159.077 98.6996 159.624 98.0645 160.151 98.4526C160.567 98.7623 161.229 99.621 161.13 100.174C161.098 100.342 161.019 100.499 160.951 100.656C160.571 101.519 160.306 102.416 159.228 102.577H159.232ZM161.795 97.986C161.383 97.7861 161.296 96.849 161.296 96.4452C161.296 95.7081 161.518 94.9789 161.767 94.2928C161.859 94.0418 162.096 93.8262 162.358 93.9556C162.552 94.0497 162.762 94.3202 162.778 94.528C162.865 95.6846 162.671 97.1274 161.795 97.986ZM172.195 98.5859C172.096 99.076 171.858 99.5622 171.592 100.001C171.248 100.57 170.717 101.079 170.008 100.84C168.768 100.421 169.588 98.4957 169.893 97.692C170.107 97.1274 170.412 96.5864 170.856 96.1747C170.836 96.1943 171.743 97.1588 171.838 97.2842C172.139 97.6685 172.29 98.0997 172.195 98.5898V98.5859ZM173.716 94.9005C173.601 95.4258 173.427 96.0571 172.813 95.9042C172.294 95.7748 172.416 95.1671 172.349 94.7162C172.658 93.834 172.416 92.7598 173.288 92.0776C173.359 92.0227 173.7 92.1442 173.759 92.2618C174.124 92.9754 173.989 93.8105 173.795 94.5515C173.767 94.6535 173.744 94.775 173.716 94.9005ZM180.324 96.8373C180.637 95.8414 180.847 94.9044 181.465 94.0418C182.451 92.6578 183.335 90.9915 184.797 90.0427C183.557 92.4775 182.352 94.9201 180.324 96.8373Z" fill="#656565"/>
<path d="M204.597 98.6611H204.51C204.379 98.6571 204.256 98.6372 204.133 98.6094C204.288 98.6372 204.442 98.6531 204.597 98.6611Z" fill="#656565"/>
<path d="M271.22 82.2562C270.008 83.6716 268.665 84.9693 267.16 86.0789C266.954 86.2279 266.724 86.3769 266.47 86.3612C265.975 86.3298 265.757 85.7299 265.718 85.2398C265.591 83.6402 266.13 81.9425 267.362 80.8996C268.21 80.1822 269.307 79.8214 270.218 79.1902C272.092 77.8885 274.033 73.8463 271.371 72.3408C269.525 71.2939 268.721 72.9367 267.805 73.8816C266.49 75.2499 265.48 76.8731 264.703 78.6256C264.458 79.1785 263.975 79.6685 263.337 79.5548C262.663 79.4372 262.865 78.7276 262.774 78.2453C262.723 77.9905 262.723 77.7239 262.695 77.4651C262.612 76.7437 262.544 75.9792 261.701 75.7126C260.773 75.4185 260.231 75.9909 259.728 76.6535C259.522 76.928 259.478 77.4259 258.852 77.3553C259.011 76.6535 259.213 75.9752 259.312 75.2813C259.45 74.305 259.276 73.415 258.151 73.1053C256.939 72.7681 256.542 73.5444 256.237 74.5128C255.576 76.6339 254.851 78.7315 254.165 80.8447C253.65 82.4405 252.834 83.7539 250.945 84.4008C250.937 82.8208 251.353 81.4054 251.016 80.0018C250.659 78.5119 249.855 77.2652 248.35 76.8927C246.9 76.532 246.401 77.9748 245.695 78.853C245.208 79.4607 244.883 80.1939 244.495 80.8722C243.065 83.3697 241.658 85.8828 240.2 88.3607C239.836 88.9802 239.555 89.7879 238.572 89.8467C238.251 88.8234 238.572 87.9412 238.818 87.0826C239.281 85.4516 239.911 83.8637 240.303 82.2209C240.529 81.2603 240.922 80.0136 239.638 79.449C238.453 78.9315 237.661 79.7705 236.999 80.6409C236.425 81.3936 235.87 82.1621 235.237 83.0129C234.706 82.0876 235.173 81.4485 235.339 80.7899C235.542 79.9744 235.997 79.0452 235.003 78.5198C234.024 77.9983 233.196 78.606 232.602 79.3549C231.956 80.1704 231.425 81.08 230.847 81.9504C230.273 82.8129 229.936 83.848 229.001 84.4518C229.001 83.0011 229.801 81.7543 230.074 80.3664C230.308 79.1824 229.888 78.4374 228.672 78.312C227.717 78.2179 226.838 78.4649 226.755 79.5431C226.592 81.6014 225.867 83.5775 225.388 85.577C224.865 87.7569 224.453 89.9486 224.072 92.156C223.902 93.1518 223.252 95.2376 224.639 95.6963C225.709 96.0806 226.125 95.1318 226.485 94.3594C227.202 92.8146 227.888 91.262 228.573 89.7055C229.385 87.8746 229.967 85.9299 231.402 84.3891C230.997 85.7456 231.505 87.1688 230.843 88.5293C230.482 89.2742 230.605 90.3367 231.604 90.6896C232.543 91.0189 232.78 90.078 233.125 89.486C233.553 88.7528 233.87 87.953 234.325 87.2394C235.161 85.9299 235.593 84.3342 236.972 83.2168C237.229 84.1028 236.873 84.687 236.69 85.2947C236.259 86.7532 236.12 88.247 236.128 89.7526C236.132 90.7053 236.421 91.5678 237.447 91.9521C238.441 92.3285 239.048 91.6972 239.697 91.1209C240.296 90.5916 240.573 89.6898 241.54 89.4428C241.971 90.4936 241.706 91.7796 243.192 92.1795C245.046 92.6735 246.527 92.301 247.427 90.6465C248.647 88.4078 249.867 86.2279 252.371 85.1418C252.941 85.7495 252.66 86.4553 252.608 87.1375C252.521 88.349 252.446 89.5565 253.23 90.6151C254.336 91.4267 255.588 91.6071 255.603 89.9408C255.647 85.381 258.266 81.9543 260.199 78.0336C261.926 80.4919 262.838 82.8796 263.028 85.2124C263.051 85.4712 263.079 85.7299 263.139 85.9848C263.444 87.2943 264.315 88.5568 265.797 88.5724C267.473 88.5881 269.022 87.0669 270.052 85.9181C271.533 84.2636 272.698 82.3581 273.855 80.4644C274.259 79.8058 274.77 79.0804 274.968 78.3237C275.162 77.5867 274.584 77.9709 274.259 78.2649C273.352 79.0883 272.762 80.3507 272.001 81.3152C271.747 81.6367 271.49 81.9504 271.224 82.2601L271.22 82.2562ZM270.606 75.2734C270.175 76.9789 269.303 78.3355 267.437 79.4411C268.214 77.52 269.101 76.1674 270.606 75.2734ZM245.739 89.3017C244.844 89.4585 244.527 88.694 244.709 88.051C245.014 86.965 245.03 85.5535 246.167 85.0556C246.559 84.887 247.427 85.9691 247.716 86.8003C247.165 87.7648 247.074 89.0664 245.739 89.3017ZM248.469 84.8007C248.068 84.4792 247.989 84.4479 247.969 84.3969C247.462 83.0756 247.767 81.8602 248.492 80.7154C248.532 80.6526 248.952 80.6958 248.987 80.782C249.602 82.1817 248.94 83.3697 248.469 84.8007Z" fill="#656565"/>
<path d="M220.428 83.7107C220.222 82.5188 219.045 82.6325 218.154 82.8443C216.553 83.2206 215 83.7813 213.412 84.1891C210.916 84.836 210.844 85.0398 211.906 87.2668C212.326 88.145 212.124 89.2193 211.665 90.0505C211.312 90.6856 210.765 90.2387 210.397 89.8152C210.29 89.3056 210.246 88.7723 210.072 88.2901C209.165 85.7926 209.295 83.6794 211.799 82.0209C213.348 80.9937 213.812 79.2215 214.188 77.4533C214.533 75.8615 213.408 75.1832 212.457 74.4657C210.686 73.1288 208.408 76.2261 207.596 77.4768C207.239 78.0218 206.95 78.6217 206.804 79.2607C206.645 79.9351 206.776 80.6173 206.669 81.3034C206.526 82.2326 206.237 83.1383 205.762 83.9538C204.87 85.4946 203.278 86.3925 202.2 87.7765C201.063 89.2271 200.314 90.9836 200.12 92.8146C199.989 94.077 200.168 95.1395 200.81 96.253C201.174 97.2097 201.911 97.7899 202.822 98.1859C203.234 98.3898 203.654 98.527 204.082 98.6015C204.098 98.6054 204.118 98.6094 204.133 98.6094C204.288 98.6368 204.442 98.6525 204.597 98.6603C206.269 98.7584 208.004 97.9115 209.604 96.1785C210.397 96.006 210.983 96.4726 211.605 96.8215C212.786 97.4802 214.339 97.3391 215.337 96.4099C215.769 96.0099 216.054 95.5708 216.644 95.4101C217.064 95.2925 217.492 95.1866 217.361 94.6495C217.179 93.9241 216.553 94.0731 216.074 94.2339C214.628 94.724 213.253 94.8298 212.005 93.7595C212.16 91.9559 213.53 90.5602 213.796 88.839C214.232 86.0435 216.157 85.3496 218.542 85.0908C219.437 84.9928 220.658 85.0281 220.428 83.7107ZM209.204 94.0418C209.196 94.0849 209.192 94.128 209.188 94.1711C209.137 94.1947 209.085 94.2182 209.038 94.2417C208.254 94.6299 207.509 95.1082 206.701 95.4493C205.524 95.9472 204.197 96.1825 203.393 94.9945C203.016 94.4417 202.751 93.7555 202.612 93.1047C202.561 92.8577 202.529 92.6068 202.541 92.3559C202.553 92.101 202.612 91.8501 202.675 91.5992C203.167 89.7329 204.224 88.1058 205.73 86.8708C206.586 86.169 207.097 86.2553 207.303 87.4275C207.687 89.5996 208.151 91.756 209.24 93.7203C209.224 93.8261 209.212 93.9359 209.204 94.0418ZM208.899 80.335C208.903 80.288 208.907 80.2409 208.911 80.1899C208.955 79.6136 209.046 79.0333 209.264 78.4962C209.505 77.912 209.91 77.3788 210.472 77.0887C210.674 76.9828 210.908 76.9083 211.134 76.9554C211.49 77.0299 211.716 77.3906 211.803 77.7434C211.942 78.3355 211.791 78.9667 211.51 79.5077C211.229 80.0527 210.817 80.5036 210.428 80.978C210.119 81.3544 209.783 81.7621 209.248 81.4916C208.832 81.2799 208.876 80.731 208.899 80.335Z" fill="#656565"/>
</g>
<defs>
<clipPath id="clip0_69_594">
<rect width="275" height="123" fill="white"/>
</clipPath>
</defs>
</svg>
