<svg width="323" height="104" viewBox="0 0 323 104" fill="none" xmlns="http://www.w3.org/2000/svg">
<g clip-path="url(#clip0_69_588)">
<path d="M27.083 39.1086C24.8247 54.7045 22.7703 68.8552 20.7266 83.0059C19.9756 88.2045 19.4178 93.4356 18.4147 98.5857C18.1787 99.8044 16.5641 101.584 15.4913 101.66C10.6583 101.994 5.78779 101.805 0.00537109 101.805C5.01537 70.0254 9.93418 38.8713 14.9281 7.25334C20.4208 7.25334 25.6508 6.94056 30.7895 7.45827C32.2163 7.60387 34.0025 9.99288 34.5979 11.7132C41.9413 32.9877 49.0915 54.327 56.3115 75.6447C56.8426 77.2086 57.5238 78.724 58.5698 81.3557C62.3675 70.1764 65.8273 60.038 69.2549 49.8888C73.589 37.0647 78.0144 24.2676 82.1446 11.3788C83.1424 8.26719 84.5155 7.16706 87.793 7.16167C101.546 7.14009 101.605 7.02145 103.815 20.7084C108.133 47.4458 112.382 74.1941 116.785 101.762C111.014 101.762 105.526 101.929 100.066 101.595C99.1754 101.541 97.8988 99.3676 97.6789 98.0248C94.8842 80.9782 92.2558 63.9046 89.5631 46.8418C89.311 45.2402 88.9087 43.6655 87.734 42.0746C81.5761 59.9679 75.2251 77.7965 69.389 95.7976C67.871 100.473 65.8648 102.107 60.9514 101.956C48.9843 101.589 48.9843 101.843 45.1222 90.6097C39.785 75.0839 34.4478 59.5634 29.0891 44.0484C28.6653 42.8242 28.1129 41.6486 27.0722 39.1086H27.083Z" fill="#656565"/>
<path d="M310.067 0C312.143 4.1902 314.149 8.24019 316.29 12.5652C307.321 18.8532 297.864 23.4371 287.479 26.0957C284.712 26.8022 281.879 27.4062 279.246 28.4847C273.581 30.7928 271.725 34.584 272.734 41.2117C276.896 40.2248 281.005 38.9144 285.216 38.3158C304.8 35.5385 321.38 48.7724 322.882 68.1757C324.427 88.1398 310.277 103.606 290.204 103.908C265.256 104.28 249.62 81.7763 258.278 58.1936C259.05 56.0904 259.018 53.2269 258.278 51.0913C251.616 31.6988 259.737 16.4211 279.46 11.5999C284.679 10.3218 290.011 9.28639 295.016 7.39891C300.021 5.51143 304.682 2.691 310.062 0L310.067 0ZM305.256 71.1795C305.309 61.3969 298.851 54.2515 289.786 54.0735C280.592 53.8956 273.624 61.2298 273.64 71.077C273.651 80.7355 280.329 87.827 289.432 87.854C298.637 87.8809 305.202 80.962 305.25 71.1795H305.256Z" fill="#656565"/>
<path d="M136.686 58.4255C133.95 54.8069 131.515 51.5874 129.101 48.4003C139.674 37.6201 161.028 34.5732 174.411 41.7941C186.11 48.1037 186.829 60.0541 175.972 67.755C175.157 68.3375 174.309 68.8767 172.974 69.7773C174.932 70.802 176.535 71.5893 178.086 72.4629C187.773 77.9204 189.018 90.189 180.081 96.8815C176.299 99.7127 171.525 101.886 166.902 102.76C152.161 105.548 138.065 104.129 125.615 93.2737C128.318 89.7576 130.925 86.3602 133.275 83.3025C138.751 85.5513 143.67 88.3717 148.948 89.4934C153.368 90.4371 158.325 89.9572 162.798 88.9703C164.654 88.5604 166.945 85.2331 167.025 83.1515C167.089 81.4959 164.305 78.546 162.428 78.217C156.367 77.1439 150.139 77.0145 143.638 76.4968V64.1904C146.475 64.1904 149.42 64.2659 152.354 64.1688C155.036 64.0825 158.013 64.4708 160.315 63.43C162.573 62.4108 165.625 59.8276 165.598 57.9671C165.571 56.0149 162.621 53.0759 160.39 52.3748C153.4 50.1853 146.781 52.3209 140.607 55.9017C139.454 56.5704 138.36 57.3362 136.675 58.4201L136.686 58.4255Z" fill="#656565"/>
<path d="M218.138 101.579H200.507V38.9089H246.75V54.0141H218.144V101.579H218.138Z" fill="#656565"/>
</g>
<defs>
<clipPath id="clip0_69_588">
<rect width="323" height="104" fill="white"/>
</clipPath>
</defs>
</svg>
