<svg width="255" height="104" viewBox="0 0 255 104" fill="none" xmlns="http://www.w3.org/2000/svg">
<g clip-path="url(#clip0_69_550)">
<path d="M140.055 43.4809C140.849 42.6476 140.541 41.6023 140.545 40.6462C140.564 28.4553 140.553 16.2682 140.556 4.0773C140.556 0.863101 141.224 0.182317 144.383 0.174877C149.119 0.163717 153.859 0.141396 158.595 0.182317C169.2 0.279041 177.763 8.74978 177.837 19.3633C177.915 30.5609 177.837 41.7585 177.826 52.9561C174.964 52.7217 172.121 53.9382 169.248 53.0789C169.586 41.4646 169.597 29.8429 169.248 18.2324C169.092 13.0354 163.959 8.73862 158.777 8.66794C156.231 8.63446 153.681 8.7535 151.142 8.62702C149.498 8.54517 148.967 9.02507 148.971 10.7475C149.03 32.7856 149.019 54.8236 149.023 76.8654C146.343 78.7813 143.559 80.5148 140.415 81.5862C140.46 81.2365 140.541 80.8869 140.541 80.5372C140.553 69.5777 140.553 58.6181 140.553 47.6586C140.553 47.0299 140.608 46.3715 140.07 45.8841C140.066 45.0843 140.059 44.2882 140.055 43.4884V43.4809Z" fill="#909090"/>
<path d="M188.46 85.4886C188.708 81.1844 188.701 76.8765 188.482 72.5723C189.74 72.111 191.793 72.204 191.652 70.4519C191.533 68.9675 189.714 69.2502 188.467 69.2651C188.616 64.615 188.887 59.9611 188.319 55.3184C189.113 54.7194 188.987 53.7447 188.616 53.2276C188.089 52.4948 188.352 52.0298 188.504 51.3341C188.953 49.2769 189.002 47.1787 188.504 45.1029C188.541 39.359 188.593 33.6151 188.608 27.8749C188.627 19.9994 188.605 12.1239 188.623 4.24466C188.631 0.814703 189.317 0.15996 192.743 0.16368C202.512 0.16368 212.285 0.17484 222.055 0.16368C223.513 0.16368 225.184 0.0967178 225.555 1.81542C225.993 3.84289 226.42 6.05265 224.972 7.93875C224.285 8.83159 223.187 8.65674 222.199 8.65674C214.624 8.65674 207.048 8.70882 199.473 8.61954C197.709 8.59722 197.171 9.12548 197.186 10.8925C197.26 20.1147 197.264 29.3407 197.186 38.5666C197.171 40.4043 197.839 40.821 199.532 40.795C205.408 40.7094 211.283 40.7578 217.159 40.7689C220.989 40.7726 221.543 41.3158 221.539 44.9875C221.535 48.5142 220.941 49.0946 217.27 49.0983C211.536 49.1095 205.801 49.1057 200.066 49.1095C198.149 49.1095 197.205 50.0804 197.234 52.0223C197.242 52.4464 197.297 52.8668 197.335 53.2909C196.937 54.0275 196.945 54.7566 197.398 55.4672C197.134 64.0383 197.086 72.6095 197.42 81.177C194.644 83.0482 191.644 84.4507 188.467 85.4849L188.46 85.4886Z" fill="#909090"/>
<path d="M66.0985 49.1579C62.3014 47.5508 58.6973 48.8156 55.0821 49.8982C54.0057 45.1029 51.8826 40.6834 50.1603 36.13V52.666C50.1158 53.3244 50.075 53.9829 50.0304 54.6451C50.0638 61.0846 50.0972 67.5242 50.1306 73.9637C47.551 75.9614 44.7709 77.6318 41.8609 79.0938C41.7941 73.4875 41.7235 67.8776 41.6567 62.2714C41.6716 61.4752 41.6864 60.6829 41.7013 59.8867C41.7235 41.4349 41.7458 22.983 41.7718 4.53119C41.7718 3.82065 41.7792 3.11382 41.8015 2.40328C41.8163 1.81549 42.0242 1.2984 42.451 0.878021C44.1993 -0.84812 49.1953 0.215838 50.0081 2.52976C55.2417 17.3768 60.4567 32.2313 65.6605 47.0895C65.8907 47.748 65.9575 48.4622 66.0985 49.1504V49.1579Z" fill="#909090"/>
<path d="M99.9236 59.0719C98.335 62.5056 96.7315 65.9319 95.1652 69.3767C94.7309 70.3328 94.2669 71.3112 94.0516 72.3268C93.6396 74.2836 92.6115 75.3885 91.0191 75.7939H90.9189L90.9004 75.1764L90.9264 74.5812C91.0488 73.9785 90.9412 73.2866 90.9041 72.6728C90.4253 64.455 90.7445 56.2298 90.7074 48.012C90.6405 34.467 90.6888 20.9257 90.6888 7.38072C90.6888 6.88594 90.6851 6.38745 90.6888 5.89267C90.7445 1.1681 93.1497 -0.558041 97.7597 0.788647C98.7952 1.08998 99.2369 1.86377 99.4151 2.79752C99.5487 3.48574 99.519 4.21117 99.5227 4.91799C99.5302 22.0046 99.5264 39.0948 99.5487 56.1814C99.5487 57.1486 99.2852 58.1791 99.9236 59.0719Z" fill="#909090"/>
<path d="M130.085 47.5917C129.992 48.8119 129.053 49.5596 128.422 50.4525C125.776 54.1838 123.749 58.2871 121.363 62.1709C121.363 56.4233 121.37 50.6794 121.348 44.9318C121.348 44.1059 121.578 43.2131 120.932 42.4877C120.969 41.4944 121.003 40.5011 121.036 39.5078C121.552 38.6559 121.348 37.711 121.348 36.807C121.363 26.1042 121.359 15.3977 121.355 4.69485C121.355 3.26631 121.181 1.61458 122.892 1.10864C124.926 0.505977 127.09 0.234408 129.02 1.52529C130.048 2.21352 129.829 3.41512 129.829 4.4642C129.833 17.9311 129.829 31.4017 129.84 44.8685C129.84 45.7763 129.655 46.7174 130.089 47.5917H130.085Z" fill="#909090"/>
<path d="M188.612 53.2277C188.085 52.4948 188.349 52.0335 188.501 51.3341C188.95 49.2769 188.998 47.1787 188.497 45.1029C187.881 46.1259 187.079 47.0783 186.675 48.1795C185.112 52.4353 182.105 53.8378 177.826 52.9524C174.964 52.718 172.121 53.9382 169.248 53.0751C167.062 53.0937 164.879 53.1421 162.693 53.1235C161.208 53.1086 159.713 53.0677 158.28 53.4769C157.318 53.7485 155.886 53.8638 156.186 55.3258C156.457 56.6242 157.734 56.2782 158.688 56.1889C159.88 56.0736 161.064 55.8504 162.255 55.7276C164.638 55.4858 167.014 55.1175 169.422 55.27C172.214 55.2477 175.005 55.2217 177.796 55.1993C179.221 55.1845 181.233 54.4814 181.901 55.4895C182.525 56.4344 180.821 57.8146 180.157 59.0013C179.589 60.0169 179.195 61.1813 178.212 61.9253C175.435 67.2563 172.737 72.6356 169.348 77.6169C164.783 81.5565 159.913 85.0348 154.316 87.3524C152.683 88.0295 150.73 88.7103 149.361 87.1627C148.11 85.7528 148.885 83.9448 149.58 82.4009C151.079 79.0677 153.228 76.2181 156.001 73.9228C156.825 74.0827 156.558 74.7412 156.765 75.1318C157.408 76.352 158.191 76.1809 158.9 75.2955C159.831 74.1274 159.876 72.7993 159.111 71.527C158.35 70.2622 157.163 69.9645 155.797 70.3738C154.082 70.8909 153.02 72.2524 151.851 73.4838C150.838 74.5515 150.262 75.9874 149.026 76.8617C146.343 78.7775 143.559 80.5111 140.419 81.5825C137.557 83.1822 134.651 84.6702 131.296 84.9083C130.609 85.3845 129.785 85.2989 129.042 85.3361C127.409 85.4143 126.21 84.5809 126.147 82.918C126.095 81.549 126.248 79.9531 128.408 80.2284C128.868 80.2879 129.235 79.6778 129.781 79.8861C130.884 79.2723 131.993 78.6659 133.088 78.0372C133.697 77.6875 134.324 77.3564 134.877 76.9324C136.882 75.4034 137.817 73.2643 136.856 72.1259C135.315 70.3105 133.675 71.5642 132.086 72.1966C131.514 72.4273 131.077 72.989 130.379 72.8923C128.452 74.7598 126.437 76.5269 125.231 79.0193C123.193 83.2231 124.418 86.1769 128.79 87.3636C132.866 86.7721 136.548 84.9827 140.356 83.5802C142.601 82.2707 144.847 80.965 147.089 79.6592C147.237 79.5625 147.449 79.3542 147.516 79.3914C147.831 79.5848 147.612 79.8117 147.486 80.0201C147.148 81.2254 146.699 82.4158 146.491 83.6472C146.076 86.1248 146.662 88.2341 149.101 89.4692C152.144 90.0756 154.798 88.9409 157.404 87.598C161.123 85.6858 164.467 83.2082 168.038 80.805C166.357 84.1606 164.675 87.5198 162.997 90.8791C162.945 91.1209 162.938 91.3962 162.574 91.3739L162.663 91.3925C161.49 94.3537 160.314 97.3112 159.141 100.269C159.108 101.102 159.022 101.943 159.063 102.772C159.089 103.375 159.475 103.818 160.084 103.963C160.7 104.108 161.179 103.777 161.568 103.364C161.999 102.903 162.103 102.423 161.565 101.909C160.856 101.229 161.149 100.529 161.632 99.8633C162.649 96.0873 164.456 92.6462 166.212 89.1939C169.827 82.0922 173.602 75.076 177.87 68.3351C180.09 64.5294 182.358 60.7498 184.511 56.9032C185.416 55.2886 186.589 54.7418 188.315 55.3184C189.113 54.7194 188.983 53.7448 188.612 53.2277ZM129.273 77.1444C129.417 77.003 129.566 76.858 129.714 76.7166C129.937 76.5194 130.163 76.3223 130.39 76.1251C130.824 75.701 131.21 75.195 131.956 75.1616C131.978 76.0358 131.299 76.2032 130.735 76.4748C130.49 76.6571 130.249 76.8356 130.004 77.0179C129.826 77.1221 129.644 77.23 129.466 77.3341C129.377 77.4123 129.232 77.5685 129.202 77.5499C128.946 77.3825 129.124 77.2634 129.273 77.1444Z" fill="#DADADA"/>
<path d="M197.446 89.9602C196.93 91.8687 198.374 91.4743 199.32 91.4818C206.67 91.5153 214.019 91.5004 221.368 91.5153C222.908 91.5153 224.768 91.2251 225.451 92.9959C226.164 94.8411 226.13 96.8983 225.395 98.7956C224.998 99.8223 223.959 100.109 222.919 100.109C212.53 100.12 202.145 100.139 191.756 100.098C189.647 100.09 188.69 99.0597 188.634 96.9095C188.571 94.5732 188.627 92.237 188.601 89.897C188.593 89.1381 188.79 88.3234 188.204 87.6612C190.991 86.1583 193.779 84.6516 196.57 83.1487C197.45 84.0601 196.956 85.1799 197.041 86.2104C197.034 87.4752 196.548 88.7921 197.45 89.9602H197.446Z" fill="#909090"/>
<path d="M130.378 72.8923C128.456 74.7598 126.44 76.5268 125.23 79.0193C123.193 83.2231 124.421 86.1769 128.794 87.3636C125.375 95.3098 119.373 99.6103 110.747 100.209C110.792 97.0545 111.515 94.045 112.666 91.1284C116.278 91.0912 120.167 86.7833 120.906 83.6063C121.752 79.9754 121.244 76.2999 121.281 72.643C121.281 72.338 121.051 72.152 120.732 72.1148C123.716 68.2905 126.804 64.5555 130.093 60.9916C129.495 64.4364 129.97 67.9073 129.84 71.3596C129.818 71.9213 129.829 72.5054 130.375 72.8848L130.378 72.8923Z" fill="#909090"/>
<path d="M140.355 83.5802C142.601 82.2744 144.843 80.9687 147.089 79.6592C147.222 79.7782 147.352 79.901 147.486 80.02C147.144 81.2291 146.695 82.4158 146.491 83.6472C146.075 86.1248 146.658 88.2341 149.1 89.4692C148.722 91.1469 149.356 91.7496 151.086 91.6752C154.943 91.5004 158.806 91.4818 162.663 91.3962C161.49 94.3537 160.313 97.3112 159.141 100.269C154.2 100.217 149.26 100.165 144.32 100.112C141.387 100.083 140.623 99.2717 140.552 96.2993C140.452 92.0584 140.808 87.8137 140.359 83.5802H140.355Z" fill="#909090"/>
<path d="M161.635 99.8633C162.652 96.0873 164.456 92.6462 166.212 89.1976C169.827 82.0922 173.602 75.076 177.87 68.3389C178.156 73.5061 178.268 78.6957 177.637 83.8221C176.653 91.8017 170.091 98.2041 161.635 99.8633Z" fill="#909090"/>
<path d="M96.4233 94.7035C96.4902 93.5725 97.6 93.6432 98.2235 93.1745C100.079 91.7906 101.995 90.4848 103.888 89.1493C105.595 90.935 107.859 91.359 110.149 91.705C109.652 94.5695 109.151 97.4303 108.654 100.295C104.07 99.5471 100.098 97.4489 96.4233 94.7035Z" fill="#909090"/>
<path d="M28.8549 12.1016C28.8549 15.5056 28.866 18.9095 28.8437 22.3134C28.8437 22.8231 29.0627 23.6378 28.2239 23.6303C27.4296 23.6229 27.578 22.8305 27.5743 22.2985C27.5558 19.6052 27.4704 16.9043 27.5929 14.2147C27.6783 12.336 26.5796 12.3881 25.2953 12.4179C24.0816 12.4476 22.8456 12.2095 22.9161 14.1477C23.0163 16.8374 22.9532 19.5345 22.9235 22.2316C22.9198 22.7487 23.124 23.5671 22.3408 23.6117C21.3609 23.6675 21.5836 22.7635 21.5836 22.1832C21.565 15.5167 21.5613 8.85025 21.5725 2.18749C21.5725 1.59599 21.3386 0.68828 22.222 0.643639C23.1722 0.595277 22.9124 1.53647 22.9198 2.09821C22.9569 4.50886 22.9829 6.92322 22.9198 9.33015C22.8827 10.6322 23.1499 11.3837 24.6755 11.1344C25.9449 10.9298 27.6931 11.6962 27.578 9.25202C27.4741 7.05715 27.5298 4.85483 27.578 2.65995C27.5966 1.94941 27.1994 0.68084 28.1608 0.68828C29.3819 0.695721 28.7992 2.02381 28.8178 2.74179C28.892 5.85926 28.8512 8.98045 28.8475 12.1016H28.8549Z" fill="#909090"/>
<path d="M197.39 55.471C196.938 54.7567 196.93 54.0313 197.327 53.2947C206.506 53.7634 215.689 54.2322 224.868 54.7121C226.42 54.7939 227.971 54.9167 229.523 55.0692C230.254 55.1399 231.386 55.058 231.197 56.148C230.982 57.3905 229.95 56.9181 229.141 56.654C228.807 56.5461 228.461 56.4233 228.116 56.401C217.883 55.7909 207.642 55.3966 197.39 55.4747V55.471Z" fill="#DADADA"/>
<path d="M31.353 12.0644C31.353 8.79813 31.4161 5.53557 31.327 2.27301C31.2899 0.840763 31.8318 0.364587 33.1866 0.45387C34.5265 0.546873 35.8738 0.509672 37.2175 0.565474C37.6258 0.580354 38.1529 0.595235 38.1714 1.16814C38.19 1.74104 37.6963 1.77452 37.2658 1.79684C36.9837 1.81172 36.6979 1.808 36.4158 1.81172C32.3329 1.87124 32.6855 1.18302 32.6632 5.55789C32.6558 6.69253 32.7671 7.84205 32.6409 8.96181C32.4182 10.9298 33.3127 11.5213 35.0981 11.2609C35.5175 11.1976 35.9481 11.1827 36.3675 11.1976C36.7869 11.2125 37.2917 11.2423 37.3251 11.8003C37.3623 12.3992 36.85 12.3732 36.4306 12.4327C35.2614 12.5927 33.7582 11.8821 32.9898 12.8828C32.177 13.9431 32.7523 15.4944 32.6632 16.8299C32.6409 17.1833 32.6632 17.5404 32.6632 17.8938C32.6632 20.7559 34.0712 22.2836 36.8872 22.4771C37.3994 22.5143 38.2048 22.2762 38.164 23.143C38.1269 23.9205 37.3474 23.7531 36.8166 23.8051C33.1742 24.1424 31.353 22.5031 31.353 18.8871C31.353 16.6178 31.353 14.3448 31.353 12.0756V12.0644Z" fill="#909090"/>
<path d="M15.7972 12.7341C15.7972 9.76172 15.7712 6.79305 15.8083 3.82439C15.8232 2.63395 15.7155 1.67415 14.1566 1.80436C13.7372 1.84156 13.1878 1.79692 13.1544 1.26866C13.1062 0.554393 13.7483 0.599034 14.2197 0.595314C15.7675 0.576713 17.319 0.584154 18.8668 0.595314C19.2751 0.599034 19.7947 0.576713 19.791 1.17565C19.791 1.58115 19.4421 1.81552 19.0598 1.76344C16.9181 1.47699 17.1074 2.91296 17.1111 4.30057C17.1297 10.1709 17.1297 16.0413 17.1 21.9117C17.1 22.5366 17.4341 23.6229 16.4096 23.5894C15.4112 23.556 15.8195 22.4771 15.8083 21.8559C15.7638 18.8165 15.7898 15.7734 15.786 12.7341H15.7972Z" fill="#909090"/>
<path d="M188.467 69.2651C189.714 69.2503 191.533 68.9675 191.652 70.4519C191.793 72.2041 189.74 72.1111 188.482 72.5723C187.127 71.4749 187.316 70.3737 188.467 69.2651Z" fill="#DADADA"/>
<path d="M92.3815 76.724C91.9064 78.2009 91.6466 79.6741 90.7261 80.9092C90.7483 80.5371 90.778 80.1614 90.804 79.7894L90.8114 79.6703L90.8189 79.5401C90.83 79.3913 90.8374 79.2425 90.8411 79.0974V79.0863L90.9525 77.0104C91.3719 76.8207 91.8285 76.6905 92.3815 76.724Z" fill="#909090"/>
<path d="M43.1416 100.224C41.9836 99.0523 41.6866 97.6572 41.7312 96.0166C41.8388 92.1477 41.7831 88.275 41.7497 84.4024C41.7423 83.6881 42.0912 82.8176 41.1855 82.3228C42.6034 80.686 44.7414 80.1949 46.4377 78.997C47.4101 78.3125 48.4717 77.7508 49.4924 77.1295C50.2904 77.6913 50.0009 78.5394 50.0046 79.2723C50.0232 85.4105 50.0046 91.5525 50.0046 97.6907C47.8481 98.8997 45.673 100.049 43.1379 100.224H43.1416Z" fill="#909090"/>
<path d="M99.649 71.4638C99.623 74.7747 99.4671 78.0931 99.6119 81.3966C99.7232 83.9076 100.592 86.2216 102.644 87.9031C100.421 90.0347 98.027 91.8985 94.987 92.7281C93.7585 90.9015 93.0941 88.7401 91.665 87.0251C91.8395 82.5535 93.5729 78.5283 95.5364 74.652C96.301 73.1416 98.2014 72.4459 99.649 71.4601V71.4638Z" fill="#909090"/>
<path d="M60.9874 64.5295C60.0631 64.2505 60.052 63.3539 59.7996 62.6694C58.738 59.7565 57.7433 56.8214 56.704 53.9048C56.4739 53.2612 56.4405 52.4911 55.7241 52.1117C58.2704 50.3893 61.1247 50.0954 64.0384 50.5641C66.1838 50.9101 67.0226 52.7181 66.3323 55.2068C65.3449 58.7633 63.3258 61.7468 60.9837 64.5332L60.9874 64.5295Z" fill="#909090"/>
<path d="M129.814 52.3088C129.859 54.2618 129.903 56.2149 129.948 58.1643C127.376 61.9811 124.399 65.4557 121.173 68.7592C123.72 63.06 126.262 57.4128 129.814 52.3051V52.3088Z" fill="#909090"/>
<path d="M75.7197 74.8453C77.2712 76.1251 76.8629 77.4271 75.8607 78.8556C74.3352 81.0356 72.8951 83.2677 70.3896 84.5586C71.9486 81.2142 72.4645 77.3564 75.7197 74.8453Z" fill="#909090"/>
<path d="M99.6381 66.516C99.5305 67.4349 99.4265 68.3537 99.7272 69.2614C98.8846 70.0613 98.365 71.3633 96.8469 71.1104L96.832 71.1327C98.1014 69.7971 98.2982 67.8069 99.6381 66.516Z" fill="#909090"/>
<path d="M96.8468 71.1104C96.8727 71.1513 96.8986 71.196 96.9245 71.2369C96.8949 71.1997 96.8653 71.1662 96.832 71.129L96.8468 71.1067V71.1104Z" fill="#909090"/>
<path d="M169.348 77.6206C169.374 70.1729 169.4 62.7215 169.422 55.2738C172.213 55.2515 175.005 55.2254 177.792 55.2031C178.126 57.4352 177.417 59.7305 178.208 61.9328C175.431 67.2638 172.737 72.6394 169.344 77.6244L169.348 77.6206Z" fill="#909090"/>
<path d="M129.781 79.8899C129.736 81.1957 129.684 82.5014 129.647 83.8035C129.614 85.0348 130.13 85.4626 131.295 84.9121C130.609 85.3882 129.788 85.3027 129.042 85.3362C127.409 85.4143 126.214 84.581 126.151 82.9181C126.099 81.5491 126.251 79.9569 128.411 80.2284C128.872 80.2879 129.239 79.6741 129.785 79.8862L129.781 79.8899Z" fill="#909090"/>
<path d="M147.092 79.6593C147.237 79.5626 147.452 79.3542 147.515 79.3952C147.831 79.5849 147.612 79.8118 147.489 80.0201C147.356 79.9011 147.226 79.7783 147.092 79.6593Z" fill="#909090"/>
<path d="M162.578 91.3739C162.518 91.0391 162.711 90.9201 162.997 90.8792C162.949 91.121 162.938 91.3962 162.578 91.3739Z" fill="#909090"/>
<path d="M254.896 84.726C254.577 84.1903 253.879 84.5474 253.363 84.8115C250.702 86.1731 247.892 87.1292 244.967 87.6872C240.142 88.6098 235.302 89.1083 230.491 87.6091C227.678 86.7349 227.088 85.9611 227.006 83.0594C226.965 81.642 227.091 80.2246 227.043 78.811C226.965 76.6421 225.911 75.9986 223.996 76.8839C223.547 77.0923 223.127 77.3601 222.693 77.5982C222.466 77.721 222.092 78 222.032 77.9442C221.668 77.6019 222.092 77.3527 222.225 77.0662C222.596 76.032 223.42 74.9792 222.374 73.9302C221.397 72.9518 220.384 73.7628 219.427 74.0715C218.083 74.5068 216.769 75.0202 215.448 75.5112C213.503 76.2366 211.495 76.5491 209.423 76.4301C208.9 76.4003 208.317 76.5715 208.384 75.5856C208.51 73.7851 207.36 74.0269 206.306 74.5514C205.214 75.0871 204.424 76.0283 203.615 76.9174C201.881 78.8259 199.747 80.1502 197.409 81.1807C194.636 83.0482 191.633 84.4544 188.456 85.4886C187.042 86.4744 185.375 86.8241 183.757 87.2817C183.029 87.4863 182.179 87.7802 181.559 87.118C180.891 86.4038 181.151 85.496 181.474 84.7185C181.823 83.8778 182.268 83.0594 182.784 82.3116C184.065 80.4515 185.394 78.625 186.745 76.8133C187.298 76.0692 187.721 75.2694 186.971 74.544C186.188 73.7888 185.342 74.358 184.722 74.9346C181.764 77.6875 179.507 80.898 178.868 84.9901C178.397 87.9923 180.142 89.6068 183.122 88.9855C184.833 88.6247 186.511 88.1076 188.203 87.6612C190.991 86.1582 193.778 84.6516 196.566 83.1486C197.694 82.4269 198.823 81.709 199.951 80.9872C200.044 81.0914 200.137 81.1956 200.229 81.296C199.164 82.9366 198.103 84.5735 197.037 86.2103C197.03 87.4752 196.544 88.7921 197.446 89.9602C198.422 90.1462 199.402 90.2876 200.289 89.6477C203.889 87.0548 207.256 84.2833 207.497 79.3392C207.53 78.6212 207.716 78.3162 208.481 78.4129C211.777 78.8221 214.898 77.9033 218.031 77.0848C218.209 77.0402 218.387 76.9956 218.569 76.9509C218.543 77.1183 218.521 77.2857 218.499 77.4531C217.912 78.4985 217.341 79.5587 216.732 80.5929C215.474 82.7283 214.308 84.912 213.376 87.2148C213.009 88.1262 212.389 89.1753 213.655 89.7965C214.935 90.4252 215.347 89.1939 215.863 88.4052C216.483 87.4603 217.018 86.4558 217.6 85.4849C219.378 82.5162 221.954 80.4069 225.05 78.4092C225.05 80.3846 225.02 82.0549 225.057 83.7253C225.12 86.7572 226.052 88.2117 228.999 88.9818C237.714 91.2548 246.092 90.2839 254.02 85.9127C254.484 85.656 255.282 85.377 254.896 84.726ZM201.272 85.8457C201.272 85.8457 201.161 85.7341 201.157 85.7341C202.037 83.4574 203.655 81.7015 205.24 79.9196C204.91 82.5571 203.47 84.4544 201.272 85.8457Z" fill="#DADADA"/>
<path d="M80.8675 81.5193V97.8619C80.8675 98.9333 80.0583 99.8261 78.993 99.9303L78.1393 100.012L77.9538 100.031C74.5464 100.302 73.0988 100.485 72.1152 97.7466C70.9423 94.4914 69.8325 91.214 68.6633 87.9552C68.4369 87.3265 68.448 86.5266 67.676 86.1881C68.0286 85.6896 68.1511 84.6182 69.1013 85.6189C70.289 86.8652 71.4842 86.4299 72.6831 85.6264C75.0326 84.049 76.6472 81.8244 77.8164 79.3319C78.362 78.1675 78.9374 77.7322 79.7539 77.9741V76.5232C79.4273 76.3372 79.3531 76.0098 79.5981 75.3402C79.7614 74.8901 79.7391 74.3618 79.7465 73.8708C79.7725 72.6096 80.0546 71.1848 78.5328 70.5598C77.0481 69.946 75.5894 70.1915 74.3608 71.2592C70.9683 74.2056 68.9639 77.9369 68.2847 82.375C68.1919 82.9888 68.4294 83.677 67.7502 84.0937C66.5958 83.2715 66.6293 81.8728 66.1838 80.727C64.5321 76.4711 63.3963 72.0256 61.3994 67.8962C64.6101 64.3175 67.0264 60.2662 68.6076 55.7165C69.5875 58.369 70.5637 61.0177 71.6549 63.9752C72.208 63.0228 72.0076 62.2677 72.0076 61.5757C72.0224 42.4208 72.0224 23.2695 72.0187 4.11456C72.015 2.67859 71.8257 0.993366 73.4923 0.483708C75.363 -0.0854723 77.4341 -0.331001 79.2417 0.755278C80.4889 1.50674 80.3441 2.93527 80.3441 4.22616C80.3367 26.0745 80.333 47.9266 80.3478 69.7749C80.3478 69.9609 80.3478 70.1469 80.3553 70.3292V70.411C80.3701 70.9839 80.3998 71.5568 80.4332 72.1297V72.1893L80.4443 72.3232C80.4814 72.9593 80.5186 73.5955 80.5334 74.2353V74.3358C80.5408 74.5143 80.5445 74.6929 80.5445 74.8715C80.5445 75.05 80.5594 75.2249 80.5854 75.3774V75.3848L80.6485 76.7539H80.6448C80.6448 76.7539 80.6336 76.7539 80.6299 76.7501C80.6373 76.7576 80.6448 76.7576 80.6485 76.7576L80.8192 80.4628L80.8675 81.5193Z" fill="#909090"/>
<path d="M80.3516 70.3291H80.3552V70.4103L80.3516 70.3291Z" fill="#DADADA"/>
<path d="M80.4443 72.3231C80.4813 72.9593 80.5183 73.5954 80.5331 74.2353L80.4443 72.3231Z" fill="#DADADA"/>
<path d="M140.055 43.4809C140.059 44.2808 140.066 45.0769 140.073 45.8767C138.054 48.9532 136.443 52.279 134.239 55.2477C132.832 57.1413 131.169 58.86 130.1 60.9953C126.811 64.5592 123.723 68.2942 120.739 72.1185C119.633 72.6765 118.802 73.6028 118.326 74.6519C115.929 79.9605 113.909 85.4143 112.67 91.1284C111.515 94.0487 110.792 97.0545 110.751 100.209C110.495 100.808 110.795 101.269 111.107 101.746C111.504 102.356 111.556 102.958 110.747 103.256C110.016 103.524 109.526 103.103 109.288 102.456C109.029 101.753 108.865 101.016 108.661 100.291C109.158 97.4266 109.66 94.5658 110.157 91.7013C111.237 87.9067 112.321 84.1159 113.401 80.3214C113.234 80.2172 113.063 80.1131 112.896 80.0089C109.897 83.0557 106.898 86.0988 103.895 89.1455C102.002 90.4811 100.087 91.7868 98.2311 93.1707C97.6075 93.6357 96.4977 93.5688 96.4309 94.6997C95.7628 93.9296 95.1355 94.6997 94.5453 94.8188C91.4275 95.44 89.6718 94.1528 89.438 90.9461C89.245 88.3048 89.8129 85.7602 90.4364 83.2231C90.5515 82.7544 90.8188 82.3005 90.6146 81.7909C90.6591 81.5788 90.7 81.363 90.7445 81.151L90.8522 81.0282L90.7371 80.9092C91.6576 79.6778 91.9174 78.2046 92.3888 76.724C92.3814 76.6831 91.2679 77.4271 89.6681 77.6801C86.6616 77.9294 78.5478 77.7843 77.8203 79.3318C76.6548 81.8243 75.0364 84.049 72.6869 85.6263C71.488 86.4299 70.2966 86.8651 69.1051 85.6189C68.1549 84.6181 68.0324 85.6933 67.6798 86.188C65.2152 88.2974 62.8063 90.4811 60.2674 92.4974C54.737 96.8834 48.917 100.745 41.8016 102.103C39.9754 102.452 38.1344 102.493 36.3008 102.296C29.6085 101.578 26.1417 97.5047 26.2494 90.2021C26.2791 88.2044 25.8114 88.0332 24.0483 88.5354C17.2187 90.4811 10.2332 91.5711 3.1364 91.9245C2.71326 91.9468 2.28641 91.9803 1.86327 91.9728C1.10237 91.9542 0.025962 92.1142 -2.0175e-05 91.0949C-0.0260023 90.1649 1.03555 90.3434 1.70367 90.3025C9.50203 89.8003 17.1556 88.4834 24.6682 86.3071C26.1195 85.8867 26.7802 85.2283 27.1959 83.703C29.731 74.3841 34.7827 66.5569 41.7051 59.8942C41.6902 60.6903 41.6754 61.4827 41.6605 62.2788C35.692 68.7778 30.8668 75.9316 28.4801 84.9939C33.3908 83.3645 37.7669 81.5565 41.8647 79.1012C44.7747 77.6392 47.5548 75.9688 50.1344 73.9711C54.195 71.3336 57.8103 68.1901 60.9875 64.5332C63.3296 61.7468 65.3488 58.7632 66.3361 55.2068C67.0265 52.718 66.1877 50.91 64.0423 50.5641C61.1286 50.0953 58.2742 50.3892 55.728 52.1116C53.5158 52.2493 52.1499 54.2879 50.0379 54.6525L50.1678 52.6734C51.8084 51.7508 53.449 50.8282 55.0896 49.9056C58.7048 48.823 62.3089 47.5582 66.106 49.1653C68.5929 50.7166 68.875 53.1198 68.6151 55.7239C67.0339 60.2736 64.6176 64.3248 61.4032 67.9036C57.6173 71.2182 53.7459 74.4176 49.4997 77.137C48.479 77.7545 47.4174 78.3162 46.4449 79.0045C44.7487 80.2024 42.607 80.6934 41.1928 82.3303C41.0703 82.2782 40.9145 82.1517 40.8328 82.1889C36.9911 83.9969 33.105 85.7007 29.0517 86.9916C28.5284 87.159 28.2611 87.4678 28.0718 87.9811C26.8767 91.2065 28.3242 96.9653 31.0821 98.8811C34.8086 101.474 38.899 101.798 43.1489 100.228C45.684 100.053 47.8591 98.9035 50.0156 97.6944C56.745 94.231 62.3497 89.2981 67.754 84.0973C68.437 83.6807 68.1994 82.9925 68.2922 82.3786C68.9678 77.9368 70.9721 74.2092 74.3683 71.2592C75.5969 70.1915 77.0556 69.9497 78.5403 70.5598C80.0584 71.1848 79.78 72.6096 79.7541 73.8707C79.7429 74.3655 79.7689 74.8937 79.6019 75.3439C79.2047 76.4339 79.6464 76.6161 80.6523 76.7538C82.7086 77.0402 88.6697 76.3111 89.4751 75.9763C92.3777 75.1951 93.5209 74.8602 94.0554 72.3268C94.2707 71.3075 94.7346 70.3328 95.1689 69.3768C96.7353 65.9319 98.3387 62.5057 99.9273 59.072C100.774 58.9046 100.855 58.0713 101.2 57.5133C104.315 52.4465 107.581 47.4838 111.478 42.9787C112.54 41.7511 113.664 40.5569 114.889 39.5004C117.655 37.1195 118.557 37.1604 121.036 39.5078C121.003 40.5011 120.965 41.4944 120.932 42.4877C119.703 44.5263 119.098 46.8514 117.833 48.8863C112.692 57.1599 106.657 64.7006 99.649 71.46C98.2051 72.4459 96.3047 73.1415 95.5364 74.6519C93.5729 78.5283 91.8395 82.5535 91.665 87.0251C90.9078 87.9179 91.1083 89.0116 91.112 90.0272C91.1268 92.8396 92.2106 93.5651 94.9833 92.728C98.0232 91.8947 100.417 90.0347 102.641 87.903C106.868 84.8934 110.539 81.2328 113.742 77.2188C117.28 72.7881 118.753 67.1633 121.355 62.1709C123.742 58.2833 125.768 54.1838 128.415 50.4525C129.05 49.5596 129.985 48.8119 130.078 47.5917C131.871 46.7472 132.721 44.8611 134.328 43.7823C136.224 42.5063 138.051 41.8999 140.048 43.4847L140.055 43.4809ZM96.8466 71.1104C98.361 71.3633 98.8843 70.0613 99.7269 69.2614C99.9162 69.1722 100.146 69.1238 100.287 68.9862C107.317 62.2192 113.238 54.6041 117.744 45.9213C118.423 44.6081 118.954 43.2019 119.158 41.7139C119.251 41.0256 119.421 40.2147 118.649 39.8092C117.892 39.4111 117.257 39.9505 116.775 40.4341C115.676 41.5316 114.6 42.6588 113.62 43.8641C107.989 50.8096 103.42 58.4173 99.6378 66.5123C98.2942 67.8032 98.1012 69.7934 96.8318 71.1252C96.8615 71.1624 96.8911 71.1959 96.9246 71.2331C96.8986 71.1922 96.8726 71.1476 96.8466 71.1066V71.1104ZM129.814 52.3088C126.262 57.4165 123.72 63.06 121.173 68.7629C124.399 65.4595 127.376 61.9811 129.948 58.168C132.862 54.6971 135.389 50.9621 137.587 47.0002C137.891 46.4496 138.14 45.8507 138.318 45.2443C138.611 44.2398 138.103 43.9199 137.193 44.1468C136.206 44.3961 135.408 45.0025 134.717 45.7167C132.795 47.6958 131.084 49.8386 129.814 52.3088ZM75.7194 74.8454C72.4605 77.3565 71.9446 81.2142 70.3894 84.5586C72.8948 83.2677 74.3349 81.0357 75.8605 78.8557C76.8626 77.4271 77.2709 76.1251 75.7194 74.8454Z" fill="#DADADA"/>
</g>
<defs>
<clipPath id="clip0_69_550">
<rect width="255" height="104" fill="white"/>
</clipPath>
</defs>
</svg>
